<svg xmlns="http://www.w3.org/2000/svg" viewBox="0 0 1100 400"><defs><linearGradient id="g"><stop stop-color="#b6e7ff"/><stop offset="1" stop-color="#f9e9ca"/></linearGradient></defs><rect width="1100" height="400" fill="url(#g)"/><rect x="80" y="30" width="600" height="210" fill="#d7efff" stroke="#8ab6da" stroke-width="16"/><path d="M280 30v210M480 30v210" stroke="#8ab6da" stroke-width="12"/><rect x="780" y="45" width="250" height="150" rx="9" fill="#24527e" stroke="#e4c69a" stroke-width="13"/><g fill="#bc8c5c"><path d="M120 290h170v16H120zM145 306h10v80h-10zM255 306h10v80h-10zM350 290h170v16H350zM375 306h10v80h-10zM485 306h10v80h-10zM600 290h170v16H600zM625 306h10v80h-10zM735 306h10v80h-10z"/></g><g fill="#4c86a6"><path d="M150 255h90v20h-90zM380 255h90v20h-90zM630 255h90v20h-90z"/></g></svg>